Coordinates
version=1
nRows=6
nColumns=63
inDegrees=yes

Units are S.I. units (second, meters, Newtons, ...)
If the header above contains a line with 'inDegrees', this indicates whether rotational values are in degrees (yes) or radians (no).

endheader
time	pelvis_tilt	pelvis_list	pelvis_rotation	pelvis_tx	pelvis_ty	pelvis_tz	hip_flexion_r	hip_adduction_r	hip_rotation_r	knee_angle_r	knee_angle_r_beta	ankle_angle_r	subtalar_angle_r	mtp_angle_r	hip_flexion_l	hip_adduction_l	hip_rotation_l	knee_angle_l	knee_angle_l_beta	ankle_angle_l	subtalar_angle_l	mtp_angle_l	L5_S1_Flex_Ext	L5_S1_Lat_Bending	L5_S1_axial_rotation	L4_L5_Flex_Ext	L4_L5_Lat_Bending	L4_L5_axial_rotation	L3_L4_Flex_Ext	L3_L4_Lat_Bending	L3_L4_axial_rotation	L2_L3_Flex_Ext	L2_L3_Lat_Bending	L2_L3_axial_rotation	L1_L2_Flex_Ext	L1_L2_Lat_Bending	L1_L2_axial_rotation	L1_T12_Flex_Ext	L1_T12_Lat_Bending	L1_T12_axial_rotation	Abs_r3	Abs_r2	Abs_r1	Abs_t1	Abs_t2	neck_flexion	neck_bending	neck_rotation	arm_flex_r	arm_add_r	arm_rot_r	elbow_flex_r	pro_sup_r	wrist_flex_r	wrist_dev_r	arm_flex_l	arm_add_l	arm_rot_l	elbow_flex_l	pro_sup_l	wrist_flex_l	wrist_dev_l
      6.79661017	     -2.95554962	     -3.25302424	    108.11934976	      0.25695216	      0.98555232	      0.40355614	      5.36494136	     -3.49758504	    -10.67137775	     18.58234307	      0.32432307	     36.65442424	     -9.37524816	      0.00000000	     10.85537164	      1.91536510	      4.62903493	     19.08562264	      0.33310695	     38.26676254	     18.28426593	      0.00000000	     -0.07870257	      0.67290331	      2.46895823	     -0.14615854	      0.89496140	      2.62326812	     -0.12930045	      1.63609710	      2.62326812	     -0.08994916	      1.63609710	      2.16033845	     -0.07308320	      1.37218442	      2.00602856	     -0.04497065	      1.04232722	      1.85171867	     -0.56216457	      7.61201679	     13.73160497	      0.00000000	      0.00000000	     20.16301939	    -13.54826324	     29.64709628	     26.51231726	    -19.99510154	     48.88357353	     79.47643296	     89.04840897	    -18.81412884	     -7.59860248	     44.63245821	    -49.57549767	    -19.22694496	    149.50109626	     84.91478021	    -24.70516800	      7.15122742
      6.81355932	     -2.79412714	     -3.31840469	    108.28737275	      0.25602887	      0.98550673	      0.40418046	      5.40021643	     -3.40087520	    -10.74961662	     18.35597320	      0.32037217	     36.29910382	     -9.68796231	      0.00000000	     11.13786603	      1.87035324	      4.78723561	     19.32211270	      0.33723449	     38.30901010	     18.25826661	      0.00000000	     -0.05676877	      0.69970174	      2.48232105	     -0.10542528	      0.93060332	      2.63746611	     -0.09326541	      1.70125482	      2.63746611	     -0.06488102	      1.70125482	      2.17203092	     -0.05271548	      1.42683179	      2.01688585	     -0.03243767	      1.08383800	      1.86174079	     -0.40549362	      7.91516605	     13.80592497	      0.00000000	      0.00000000	     19.48920419	    -13.43263812	     29.10902016	     26.25248531	    -20.23526922	     48.37173778	     79.75661526	     89.00659608	    -18.64366548	     -7.48439540	     43.48387102	    -47.90954965	    -19.68868788	    149.34869891	     84.55231815	    -25.51796992	      5.97284198
      6.83050847	     -2.54316482	     -3.37762233	    108.54874288	      0.25498859	      0.98551616	      0.40489144	      5.39966844	     -3.15870779	    -10.75588387	     18.05935980	      0.31519529	     35.66812455	    -10.46119361	      0.00000000	     11.43983877	      1.76419763	      5.15809798	     19.52539710	      0.34078247	     38.30026297	     18.20814498	      0.00000000	     -0.05305471	      0.74847488	      2.34579002	     -0.09852790	      0.99547159	      2.49240190	     -0.08716359	      1.81984182	      2.49240190	     -0.06063623	      1.81984182	      2.05256627	     -0.04926661	      1.52628997	      1.90595440	     -0.03031546	      1.15938759	      1.75934252	     -0.37896450	      8.46689751	     13.04658038	      0.00000000	      0.00000000	     19.19791731	    -12.97047349	     30.34963451	     26.50770811	    -20.19173376	     48.27080271	     80.10326734	     88.96876007	    -17.27663274	     -6.47619704	     41.01947301	    -47.03428484	    -21.55306579	    149.08447142	     82.56803760	    -27.09856117	      2.17840510
      6.84745763	     -2.34662362	     -3.55077712	    108.70483706	      0.25405716	      0.98551119	      0.40518917	      5.46713334	     -2.97672199	    -10.52716047	     17.76824501	      0.31011438	     34.94809350	    -11.35097083	      0.00000000	     11.70744078	      1.71250751	      5.33400841	     19.54247391	      0.34108051	     38.25671376	     18.15010608	      0.00000000	     -0.03898104	      0.79041673	      2.12257456	     -0.07239168	      1.05125425	      2.25523547	     -0.06404194	      1.92181923	      2.25523547	     -0.04455143	      1.92181923	      1.85725274	     -0.03619779	      1.61181779	      1.72459183	     -0.02227376	      1.22435551	      1.59193092	     -0.27843764	      8.94135210	     11.80512295	      0.00000000	      0.00000000	     18.69132890	    -12.22145801	     32.63555533	     27.15306326	    -19.84289004	     48.65695531	     80.32835342	     88.94287044	    -15.74889667	     -5.23571725	     37.27858254	    -46.76861165	    -24.94133153	    148.83040740	     79.73532501	    -27.21663331	     -2.13928364
      6.86440678	     -2.17155047	     -3.84606090	    108.99293883	      0.25312361	      0.98541594	      0.40510641	      5.62259544	     -2.88597442	    -10.74494184	     17.54045415	      0.30613868	     34.35370809	    -11.93228180	      0.00000000	     12.02045450	      1.73558898	      5.67457272	     19.45322967	      0.33952291	     38.21955100	     18.11458211	      0.00000000	     -0.01534735	      0.82488509	      1.79689972	     -0.02850156	      1.09709717	      1.90920595	     -0.02521416	      2.00562561	      1.90920595	     -0.01754049	      2.00562561	      1.57228726	     -0.01425155	      1.68210568	      1.45998102	     -0.00876948	      1.27774701	      1.34767479	     -0.10962458	      9.33126512	      9.99381718	      0.00000000	      0.00000000	     18.42683960	    -11.61347889	     35.73457694	     28.08656935	    -19.20736123	     49.28970048	     80.64567885	     88.91544391	    -13.81765567	     -3.47158775	     32.19945190	    -46.86641651	    -29.97696752	    148.63160921	     76.30736356	    -25.00431283	     -6.10036148
      6.88135593	     -1.89585828	     -4.13583826	    109.34641493	      0.25194408	      0.98541519	      0.40501597	      5.76888049	     -2.71245914	    -11.07729868	     17.23773802	      0.30085528	     33.91557104	    -12.23175503	      0.00000000	     12.33000399	      1.68160728	      6.14229349	     19.30357363	      0.33691092	     38.10488514	     18.06963703	      0.00000000	      0.01044918	      0.86940153	      1.49200396	      0.01940518	      1.15630403	      1.58525421	      0.01716696	      2.11386288	      1.58525421	      0.01194237	      2.11386288	      1.30550346	      0.00970311	      1.77288360	      1.21225322	      0.00597066	      1.34670297	      1.11900297	      0.07463748	      9.83484397	      8.29807842	      0.00000000	      0.00000000	     18.56287485	    -11.51768915	     38.50546811	     29.03561799	    -18.92194734	     49.58137058	     81.71673900	     88.87485819	    -11.30431680	     -0.33696547	     27.03930803	    -46.38710742	    -34.56690363	    148.37100999	     75.22562112	    -22.41824210	     -9.13131945
